<svg xmlns="http://www.w3.org/2000/svg" width="12.786" height="50.09" viewBox="0 0 12.786 50.09">
  <path id="Path_40" data-name="Path 40" d="M1102.98,393.1l-3.665,1.428v4.7l3.665,1.411v1.511l-11.908-4.633v-1.345l11.908-4.616Zm-4.993,1.876-3.594,1.328c-.083.033-.249.089-.475.166s-.474.155-.723.232-.439.122-.581.166c.344.078.688.166,1.02.266s.569.183.759.249l3.594,1.345Zm-7.626-7.134h3.072q.569,0,1.068.033c.32.011.569.027.759.05v-.083a3.147,3.147,0,0,1-.949-1.046,3.462,3.462,0,0,1-.379-1.71,3.336,3.336,0,0,1,1.162-2.657,5.055,5.055,0,0,1,3.44-1.013,5.109,5.109,0,0,1,3.451,1.013,3.366,3.366,0,0,1,1.162,2.657,3.459,3.459,0,0,1-.38,1.71,3.333,3.333,0,0,1-.913,1.046v.116l1.127.3V389.3h-12.62Zm4.78-2.507a2.185,2.185,0,0,0,.818,1.959,4.585,4.585,0,0,0,2.526.548h.059a4.9,4.9,0,0,0,2.526-.531,2.182,2.182,0,0,0,.866-2.009,1.993,1.993,0,0,0-.878-1.777,4.543,4.543,0,0,0-2.55-.6C1096.267,382.927,1095.14,383.73,1095.14,385.335Zm3.369-14.816a4.827,4.827,0,0,1,3.428,1.129,3.9,3.9,0,0,1,1.21,3.022,4.163,4.163,0,0,1-.534,2.109,3.854,3.854,0,0,1-1.578,1.445,5.548,5.548,0,0,1-2.526.531,4.832,4.832,0,0,1-3.4-1.113,3.93,3.93,0,0,1-1.186-3.022,4.025,4.025,0,0,1,.546-2.125,3.64,3.64,0,0,1,1.554-1.445A5.313,5.313,0,0,1,1098.509,370.519Zm0,6.725a4.507,4.507,0,0,0,2.514-.614,2.612,2.612,0,0,0,0-3.969,4.409,4.409,0,0,0-2.514-.631,4.22,4.22,0,0,0-2.467.631,2.251,2.251,0,0,0-.9,1.993,2.211,2.211,0,0,0,.9,1.976A4.312,4.312,0,0,0,1098.509,377.244Zm-4.424-17.311h8.9v1.2l-1.174.216v.066a2.536,2.536,0,0,1,1.02,1.2,4.163,4.163,0,0,1,.32,1.627,3.419,3.419,0,0,1-.759,2.424,3.316,3.316,0,0,1-2.479.814h-5.824v-1.478h5.729c1.412,0,2.123-.658,2.123-1.976a2.313,2.313,0,0,0-.83-2.042,4.161,4.161,0,0,0-2.4-.581h-4.626Zm7.864-6.628a4.464,4.464,0,0,0-.047-.681,5.416,5.416,0,0,0-.131-.565h1.115a2.706,2.706,0,0,1,.178.664,4.078,4.078,0,0,1,.083.83,3.563,3.563,0,0,1-.237,1.3,2,2,0,0,1-.842.947,3.239,3.239,0,0,1-1.672.365h-5.183v1.262h-.7l-.581-1.279-1.9-.581V354.7h2.052v-2.574h1.127V354.7h5.148a1.674,1.674,0,0,0,1.21-.382A1.427,1.427,0,0,0,1101.948,353.305Z" transform="translate(-1090.36 -352.06)"/>
</svg>
