<svg id="Group_8" data-name="Group 8" xmlns="http://www.w3.org/2000/svg" width="37.955" height="37.955" viewBox="0 0 37.955 37.955">
  <path id="Path_42" data-name="Path 42" d="M1043.079,27.092a2.808,2.808,0,0,0,1.66-1.022,2.756,2.756,0,0,0,.593-1.852c0-2.01-1.542-3.216-3.9-3.216h-5.42V34.067h5.42c2.621-.1,4.626-1.447,4.626-3.779a2.923,2.923,0,0,0-.178-1.194,3.132,3.132,0,0,0-1.613-1.733A3.1,3.1,0,0,0,1043.079,27.092Zm-4.543-4.241h2.313c1.21,0,1.91.643,1.91,1.708s-.759,1.789-2.514,1.789h-1.708Zm2.016,9.185h-2.016v-3.9h2.479c1.506,0,2.348.764,2.348,2.01s-.842,1.889-2.894,1.889Zm11.031-7.919a4.271,4.271,0,0,0-3.333,1.208,4.311,4.311,0,0,0-.985,1.52,4.206,4.206,0,0,0-.261,1.794v.9a4.271,4.271,0,0,0,.261,1.848,4.2,4.2,0,0,0,1.008,1.567,4.313,4.313,0,0,0,3.428,1.228,4.032,4.032,0,0,0,2.811-.718,3.942,3.942,0,0,0,1.589-2.418h-2.431a1.77,1.77,0,0,1-.759,1.009,1.822,1.822,0,0,1-1.245.257,2.183,2.183,0,0,1-.9-.171,2.155,2.155,0,0,1-.735-.527,2.082,2.082,0,0,1-.463-.787,2.14,2.14,0,0,1-.095-.907v-.281h6.63V28.7a4.2,4.2,0,0,0-1.21-3.323,4.267,4.267,0,0,0-3.309-1.259Zm2.016,4.02h-4.068a1.957,1.957,0,0,1,.107-.825,1.892,1.892,0,0,1,.415-.715,2.093,2.093,0,0,1,.676-.483,2.032,2.032,0,0,1,.818-.168,2.01,2.01,0,0,1,1.483.651,2.088,2.088,0,0,1,.427.715,1.946,1.946,0,0,1,.1.825Zm-5.029-6.231h6.025v1h-6.025Z" transform="translate(-1026.509 -9.139)"/>
  <path id="Path_43" data-name="Path 43" d="M1046.977,11a18.977,18.977,0,1,0,18.978,18.977A19,19,0,0,0,1046.977,11Zm0,36.691a17.713,17.713,0,1,1,17.708-17.713A17.733,17.733,0,0,1,1046.977,47.691Z" transform="translate(-1028 -11)"/>
</svg>
