<svg xmlns="http://www.w3.org/2000/svg" width="12.192" height="63.694" viewBox="0 0 12.192 63.694">
  <path id="Path_39" data-name="Path 39" d="M1092.177,553.751a3.745,3.745,0,0,0,1.281,3.005,5.2,5.2,0,0,0,3.5,1.1,5.566,5.566,0,0,0,3.511-1.013,3.732,3.732,0,0,0,1.269-3.072,7.405,7.405,0,0,0-.13-1.478,12.888,12.888,0,0,0-.332-1.362h1.293a6.808,6.808,0,0,1,.368,1.378,9.768,9.768,0,0,1,.119,1.677,5.661,5.661,0,0,1-.747,3.022,4.663,4.663,0,0,1-2.123,1.826,8.128,8.128,0,0,1-3.238.6,7.24,7.24,0,0,1-3.155-.648,4.9,4.9,0,0,1-2.147-1.943,5.834,5.834,0,0,1-.783-3.105,7.264,7.264,0,0,1,.7-3.271l1.269.6a8.986,8.986,0,0,0-.451,1.229A5.159,5.159,0,0,0,1092.177,553.751Zm6.239-13.779a4.826,4.826,0,0,1,3.428,1.129,3.9,3.9,0,0,1,1.21,3.022,4.161,4.161,0,0,1-.534,2.109,3.852,3.852,0,0,1-1.578,1.445,5.549,5.549,0,0,1-2.526.531,4.833,4.833,0,0,1-3.4-1.113,3.931,3.931,0,0,1-1.186-3.022,4.026,4.026,0,0,1,.546-2.125,3.641,3.641,0,0,1,1.554-1.445A5.313,5.313,0,0,1,1098.415,539.972Zm0,6.725a4.508,4.508,0,0,0,2.515-.614,2.612,2.612,0,0,0,0-3.969,4.408,4.408,0,0,0-2.515-.631,4.219,4.219,0,0,0-2.467.631,2.251,2.251,0,0,0-.9,1.993,2.212,2.212,0,0,0,.9,1.976A4.313,4.313,0,0,0,1098.415,546.7Zm-4.59-14.156a3.394,3.394,0,0,1,.771-2.408,3.291,3.291,0,0,1,2.491-.814h5.8v1.445h-5.693c-1.435,0-2.147.664-2.147,1.993a2.313,2.313,0,0,0,.83,2.042,4.264,4.264,0,0,0,2.4.565h4.614v1.461h-8.9v-1.179l1.21-.216v-.083a2.629,2.629,0,0,1-1.032-1.2A3.757,3.757,0,0,1,1093.825,532.542Zm8.03-9.783a4.481,4.481,0,0,0-.047-.681,5.492,5.492,0,0,0-.13-.565h1.115a2.7,2.7,0,0,1,.178.664,4.086,4.086,0,0,1,.083.83,3.561,3.561,0,0,1-.237,1.3,2.017,2.017,0,0,1-.842.947,3.24,3.24,0,0,1-1.672.365h-5.183v1.262h-.7l-.581-1.279-1.9-.581v-.863h2.052V521.58h1.127v2.574h5.148a1.679,1.679,0,0,0,1.21-.382A1.428,1.428,0,0,0,1101.855,522.759Zm-8.018-7.229a3.487,3.487,0,0,1,.712-2.408,2.95,2.95,0,0,1,2.277-.78h6.061V513.4l-1.257.282v.066a4.153,4.153,0,0,1,1.079,1.229,3.77,3.77,0,0,1,.344,1.76,3.167,3.167,0,0,1-.629,2.009,2.454,2.454,0,0,1-2.016.8,2.328,2.328,0,0,1-2.04-1.046,6.049,6.049,0,0,1-.795-3.221l-.047-1.511h-.534a1.656,1.656,0,0,0-1.981,1.843,3.823,3.823,0,0,0,.225,1.328,8.317,8.317,0,0,0,.462,1.179l-1.1.448a6.767,6.767,0,0,1-.522-1.378A5.927,5.927,0,0,1,1093.837,515.529Zm4.7-1.744.047,1.312a4.52,4.52,0,0,0,.534,2.308,1.534,1.534,0,0,0,1.317.631,1.283,1.283,0,0,0,1.091-.448,1.881,1.881,0,0,0,.356-1.179,2.894,2.894,0,0,0-.617-1.876,2.4,2.4,0,0,0-1.933-.747Zm4.519-8.593a4.534,4.534,0,0,1-.486,2.109,3.428,3.428,0,0,1-1.495,1.445,6.761,6.761,0,0,1-5.254-.033,3.491,3.491,0,0,1-1.518-1.478,4.663,4.663,0,0,1-.475-2.142,5.946,5.946,0,0,1,.142-1.312,4.759,4.759,0,0,1,.332-1.03l1.21.448a8.547,8.547,0,0,0-.273.93,3.843,3.843,0,0,0-.142,1q0,2.623,3.38,2.624a4.127,4.127,0,0,0,2.467-.631,2.248,2.248,0,0,0,.854-1.91,5.071,5.071,0,0,0-.154-1.279,5.913,5.913,0,0,0-.367-1.029h1.293a4.2,4.2,0,0,1,.356,1A5.725,5.725,0,0,1,1103.053,505.193Zm-1.2-8.211a4.481,4.481,0,0,0-.047-.681,5.481,5.481,0,0,0-.13-.565h1.115a2.716,2.716,0,0,1,.178.664,4.1,4.1,0,0,1,.083.83,3.561,3.561,0,0,1-.237,1.3,2.006,2.006,0,0,1-.842.947,3.239,3.239,0,0,1-1.672.365h-5.183V501.1h-.7l-.581-1.279-1.9-.581v-.864h2.052V495.8h1.127v2.574h5.148a1.674,1.674,0,0,0,1.21-.382A1.428,1.428,0,0,0,1101.855,496.981Z" transform="translate(-1090.86 -495.736)"/>
</svg>
