<svg id="Group_9" data-name="Group 9" xmlns="http://www.w3.org/2000/svg" width="37.955" height="37.955" viewBox="0 0 37.955 37.955">
  <path id="Path_48" data-name="Path 48" d="M1095.4,21.977a9.513,9.513,0,1,0,2.242,8.962h0a9.378,9.378,0,0,0,.332-2.464A9.5,9.5,0,0,0,1095.4,21.977Zm1.162,8.04c-.214-.045-.415-.065-.629-.1-.273-.048-.546-.1-.818-.135-.32-.041-.641-.063-.961-.084-.249-.016-.51-.039-.759-.043-.071,0-.154-.013-.237-.013-.415,0-.83.02-1.234.056-.059,0-.107.015-.166.02-.332.033-.652.071-.984.128-.047-.138-.107-.268-.166-.406q-.32-.828-.676-1.646c-.059-.132-.107-.272-.166-.4.119-.05.225-.105.356-.157s.237-.105.356-.161c.261-.123.522-.251.759-.383.071-.043.154-.082.237-.124.3-.177.593-.363.866-.553.059-.046.119-.093.19-.139.2-.15.4-.3.581-.455q.463-.39.89-.819a6.591,6.591,0,0,0,.463-.506.725.725,0,0,0,.095-.1c.142-.177.3-.359.427-.545a8.14,8.14,0,0,1,1.732,5.027A8.658,8.658,0,0,1,1096.56,30.016Zm-8.089-9.779a8.133,8.133,0,0,1,5.646,2.249c-.012.025-.036.047-.047.071l-.142.189c-.142.192-.3.378-.451.559a11.184,11.184,0,0,1-.937.934c-.071.061-.13.123-.214.184a8.33,8.33,0,0,1-.688.536l-.047.033q-.356.243-.747.471c-.095.056-.2.108-.3.162-.2.107-.4.207-.593.3-.13.06-.261.117-.4.172-.107.045-.214.086-.32.13a1.294,1.294,0,0,1-.095-.18c-.237-.5-.487-.992-.736-1.481l-.059-.106c-.225-.427-.451-.85-.688-1.27l-.154-.274c-.237-.4-.451-.777-.664-1.129l-.142-.229c-.178-.294-.367-.585-.546-.875l-.059-.09A8.155,8.155,0,0,1,1088.47,20.237Zm-3.594.828.024.032q.747,1.136,1.423,2.313l.071.138c.225.388.451.8.676,1.236l.142.248c.237.466.486.959.735,1.473l.059.111c-.4.11-.783.229-1.2.309l-.2.032a19.546,19.546,0,0,1-4.139.248c-.107,0-.225,0-.332-.011-.593-.037-1.186-.093-1.767-.169a8.08,8.08,0,0,1,1.542-3.524A8.233,8.233,0,0,1,1084.877,21.065Zm-4.637,7.408V28.3c.166.02.32.021.486.038.724.073,1.447.119,2.159.137.166,0,.332.019.486.019h0c.344,0,.676-.02,1-.035.142-.006.285-.006.415-.014q.907-.058,1.779-.2c.154-.024.3-.057.439-.084q.658-.124,1.281-.3c.095-.024.19-.035.273-.061.059.134.118.27.178.406q.41.951.783,1.92c-.119.037-.237.083-.368.123a11.963,11.963,0,0,0-1.234.459c-.13.058-.273.111-.4.173-.3.138-.569.287-.854.442-.059.037-.13.071-.2.109-.332.2-.652.4-.961.618-.083.059-.154.122-.237.182-.214.158-.427.317-.629.48-.107.083-.19.165-.3.248-.166.143-.32.288-.486.437-.095.09-.19.177-.273.267-.142.142-.285.281-.415.422l-.249.267-.095.1a8.455,8.455,0,0,1-1.91-2.726A8.313,8.313,0,0,1,1080.239,28.473Zm3.57,6.783.059-.069c.071-.079.142-.158.225-.239.2-.219.415-.431.629-.635a14.544,14.544,0,0,1,1.234-1.022c.095-.071.19-.143.285-.212.237-.166.486-.324.735-.478l.142-.088q.463-.266.961-.5c.095-.047.2-.088.308-.132.237-.1.486-.2.735-.294.142-.047.285-.089.415-.132s.285-.079.427-.118c.261.741.522,1.487.759,2.251l.036.1c.237.811.451,1.638.664,2.467a8.243,8.243,0,0,1-7.615-.9Zm8.789.338c-.19-.74-.391-1.476-.617-2.207l-.024-.086c-.225-.748-.463-1.49-.723-2.226.166-.027.332-.059.51-.079.142-.016.285-.035.439-.046.415-.032.842-.045,1.281-.035.047,0,.095,0,.142,0a14.586,14.586,0,0,1,1.483.132c.142.019.285.047.415.07.237.039.474.091.712.141A8.174,8.174,0,0,1,1092.6,35.594Z" transform="translate(-1069.517 -9.516)"/>
  <path id="Path_49" data-name="Path 49" d="M1089.977,11a18.977,18.977,0,1,0,18.977,18.977A19,19,0,0,0,1089.977,11Zm0,36.691a17.713,17.713,0,1,1,17.708-17.713A17.733,17.733,0,0,1,1089.977,47.691Z" transform="translate(-1071 -11)"/>
</svg>
