<svg id="Group_7" data-name="Group 7" xmlns="http://www.w3.org/2000/svg" width="37.955" height="37.955" viewBox="0 0 37.955 37.955">
  <path id="Path_44" data-name="Path 44" d="M1005.535,23a3.737,3.737,0,0,0-1.862.457.526.526,0,0,0-.6-.4h-3.521a.45.45,0,0,0-.523.591V36.641a.468.468,0,0,0,.523.591h3.521a.6.6,0,0,0,.629-.608V28.77a1,1,0,0,1,.225-.638,1.293,1.293,0,0,1,.973-.311,1.054,1.054,0,0,1,1.21,1v7.8a.462.462,0,0,0,.51.608h3.712a.455.455,0,0,0,.5-.608V28.558A5,5,0,0,0,1005.535,23Zm4.163,13.05h-2.455V28.82a2.139,2.139,0,0,0-2.349-2.26,2.47,2.47,0,0,0-1.9.716,1.637,1.637,0,0,0-.427,1.687V36.05h-2.394V24.262h2.263v.4a.665.665,0,0,0,.095.335.618.618,0,0,0,.261.234.575.575,0,0,0,.332.061.663.663,0,0,0,.332-.13l.166-.128a2.774,2.774,0,0,1,1.91-.768,3.916,3.916,0,0,1,4.163,4.3V36.05Z" transform="translate(-982.395 -8.767)"/>
  <path id="Path_45" data-name="Path 45" d="M996.372,18a2.372,2.372,0,1,0,2.372,2.372A2.374,2.374,0,0,0,996.372,18Zm0,3.5a1.127,1.127,0,1,1,1.127-1.127A1.129,1.129,0,0,1,996.372,21.5Z" transform="translate(-983.325 -9.697)"/>
  <path id="Path_46" data-name="Path 46" d="M998.107,23h-3.543a.527.527,0,0,0-.548.648V36.641a.489.489,0,0,0,.548.591h3.543a.6.6,0,0,0,.637-.608V23.631a.631.631,0,0,0-.186-.446A.642.642,0,0,0,998.107,23ZM997.6,36.051H995.2V24.263H997.6Z" transform="translate(-983.325 -8.767)"/>
  <path id="Path_47" data-name="Path 47" d="M1003.977,11a18.977,18.977,0,1,0,18.977,18.977A19,19,0,0,0,1003.977,11Zm0,36.691a17.713,17.713,0,1,1,17.708-17.713A17.733,17.733,0,0,1,1003.977,47.691Z" transform="translate(-985 -11)"/>
</svg>
