<svg xmlns="http://www.w3.org/2000/svg" width="193.882" height="18.384" viewBox="0 0 193.882 18.384">
  <path id="Path_41" data-name="Path 41" d="M63.5,35.139l-1.234-4.033H56.1l-1.234,4.033H51L56.978,18.13h4.389l6,17.008Zm-2.088-7.045L60.18,24.155q-.119-.4-.308-1.02t-.38-1.257q-.19-.64-.308-1.115-.119.474-.332,1.186-.19.688-.38,1.328-.166.617-.261.878L57,28.093Zm18.3-3.25h-3.06v10.3H73.119v-10.3H71.174V23.135l1.945-.949v-.949a4.976,4.976,0,0,1,.546-2.562,3.076,3.076,0,0,1,1.589-1.3,7.142,7.142,0,0,1,2.443-.38,9.6,9.6,0,0,1,1.874.166,7.522,7.522,0,0,1,1.376.38l-.9,2.586q-.4-.119-.878-.213a4.519,4.519,0,0,0-1.091-.119,1.3,1.3,0,0,0-1.091.451,1.868,1.868,0,0,0-.332,1.139v.807h3.06ZM92.4,21.949a4.792,4.792,0,0,1,3.345,1.139A4.6,4.6,0,0,1,97,26.694v8.445H93.465V27.571a3.564,3.564,0,0,0-.5-2.088,1.8,1.8,0,0,0-1.589-.712,2.269,2.269,0,0,0-2.206,1.115,6.738,6.738,0,0,0-.593,3.155v6.1H85.044V22.186h2.7l.474,1.661h.19A3.572,3.572,0,0,1,90.1,22.4,5.967,5.967,0,0,1,92.4,21.949Zm16.872-.024a6.111,6.111,0,0,1,3.985,1.139,4.133,4.133,0,0,1,1.4,3.44v8.635h-2.467l-.688-1.755h-.095A5.511,5.511,0,0,1,109.65,34.9a5.633,5.633,0,0,1-2.539.474,4.2,4.2,0,0,1-2.87-1,3.963,3.963,0,0,1-1.139-3.108,3.4,3.4,0,0,1,1.447-3.036,8.18,8.18,0,0,1,4.341-1.091l2.254-.071V26.5a1.882,1.882,0,0,0-.546-1.494,2.111,2.111,0,0,0-1.471-.474,6.11,6.11,0,0,0-1.851.285,13.818,13.818,0,0,0-1.8.664l-1.162-2.4a10.18,10.18,0,0,1,2.3-.854A11.31,11.31,0,0,1,109.27,21.926Zm1.874,7.211-1.376.047a3.889,3.889,0,0,0-2.373.617,1.873,1.873,0,0,0-.664,1.494,1.359,1.359,0,0,0,.474,1.162,2.107,2.107,0,0,0,1.234.332,2.869,2.869,0,0,0,1.922-.664,2.424,2.424,0,0,0,.783-1.921Zm17.8-7.188a4.794,4.794,0,0,1,3.345,1.139,4.6,4.6,0,0,1,1.257,3.606v8.445h-3.535V27.571a3.564,3.564,0,0,0-.5-2.088,1.8,1.8,0,0,0-1.589-.712,2.269,2.269,0,0,0-2.206,1.115,6.729,6.729,0,0,0-.593,3.155v6.1h-3.535V22.186h2.7l.474,1.661h.19a3.569,3.569,0,0,1,1.684-1.447A5.965,5.965,0,0,1,128.947,21.949Zm26.777,3.226,3.535-6.974h3.867L157.5,28.544v6.595h-3.558V28.663L148.323,18.2h3.89Zm23.157,3.463a6.849,6.849,0,0,1-1.708,4.982,6.076,6.076,0,0,1-4.6,1.755,6.583,6.583,0,0,1-3.226-.783,5.581,5.581,0,0,1-2.206-2.277,7.753,7.753,0,0,1-.807-3.677,6.825,6.825,0,0,1,1.684-4.958,6.155,6.155,0,0,1,4.626-1.732,6.494,6.494,0,0,1,3.226.783,5.566,5.566,0,0,1,2.206,2.277A7.456,7.456,0,0,1,178.882,28.639Zm-8.943,0a5.611,5.611,0,0,0,.617,2.918,2.289,2.289,0,0,0,2.064.973,2.2,2.2,0,0,0,2.016-.973,5.432,5.432,0,0,0,.64-2.918,5.178,5.178,0,0,0-.64-2.87,2.229,2.229,0,0,0-2.04-.973,2.265,2.265,0,0,0-2.04.973A5.346,5.346,0,0,0,169.938,28.639Zm27.07-6.452V35.139h-2.7l-.474-1.661h-.19a3.56,3.56,0,0,1-1.708,1.447,5.8,5.8,0,0,1-2.277.451,4.858,4.858,0,0,1-3.345-1.115,4.674,4.674,0,0,1-1.257-3.629V22.186h3.535v7.567a3.633,3.633,0,0,0,.5,2.088,1.8,1.8,0,0,0,1.589.712,2.282,2.282,0,0,0,2.206-1.091,6.9,6.9,0,0,0,.593-3.179v-6.1ZM213.074,31.3a3.6,3.6,0,0,1-1.4,3.036,6.788,6.788,0,0,1-4.128,1.044,12.317,12.317,0,0,1-2.325-.19,9.038,9.038,0,0,1-1.945-.569V31.7a13.475,13.475,0,0,0,2.254.783,8.781,8.781,0,0,0,2.135.308,2.61,2.61,0,0,0,1.471-.308.939.939,0,0,0,.451-.807.988.988,0,0,0-.19-.593,2.195,2.195,0,0,0-.759-.593,19.21,19.21,0,0,0-1.85-.854,14.368,14.368,0,0,1-1.993-1.02,3.435,3.435,0,0,1-1.162-1.234,3.945,3.945,0,0,1-.38-1.827,3,3,0,0,1,1.4-2.7,6.794,6.794,0,0,1,3.724-.9,10.81,10.81,0,0,1,2.3.237,10.66,10.66,0,0,1,2.254.783l-1.067,2.538a18.354,18.354,0,0,0-1.8-.664,5.445,5.445,0,0,0-1.732-.285q-1.566,0-1.566.854a.945.945,0,0,0,.19.569,2.743,2.743,0,0,0,.783.522q.592.285,1.732.759a12.87,12.87,0,0,1,1.921.949,3.358,3.358,0,0,1,1.234,1.21A3.464,3.464,0,0,1,213.074,31.3Zm11.411-9.346a5.381,5.381,0,0,1,5.812,5.883V29.54h-8.35a3.389,3.389,0,0,0,.878,2.348,3.174,3.174,0,0,0,2.348.854,10.07,10.07,0,0,0,2.277-.237,11.546,11.546,0,0,0,2.111-.783v2.728a7.988,7.988,0,0,1-2.016.688,11.642,11.642,0,0,1-2.538.237,7.912,7.912,0,0,1-3.44-.712,5.45,5.45,0,0,1-2.348-2.206,7.281,7.281,0,0,1-.854-3.7,8.292,8.292,0,0,1,.759-3.772,5.286,5.286,0,0,1,2.159-2.277A6.521,6.521,0,0,1,224.485,21.949Zm.024,2.515a2.364,2.364,0,0,0-1.708.664,3.223,3.223,0,0,0-.783,2.064h4.958a3.173,3.173,0,0,0-.617-1.945A2.171,2.171,0,0,0,224.509,24.464Zm19.139.38h-3.06v10.3h-3.535v-10.3h-1.945V23.135l1.945-.949v-.949a4.985,4.985,0,0,1,.546-2.562,3.077,3.077,0,0,1,1.589-1.3,7.147,7.147,0,0,1,2.443-.38,9.587,9.587,0,0,1,1.874.166,7.514,7.514,0,0,1,1.376.38l-.9,2.586q-.4-.119-.878-.213a4.512,4.512,0,0,0-1.091-.119,1.305,1.305,0,0,0-1.091.451,1.873,1.873,0,0,0-.332,1.139v.807h3.06Z" transform="translate(-51 -16.991)"/>
</svg>
