<svg xmlns="http://www.w3.org/2000/svg" width="12.869" height="71.471" viewBox="0 0 12.869 71.471">
  <path id="Path_38" data-name="Path 38" d="M1091.132,255.008a5.168,5.168,0,0,1,.913-3.387,3.228,3.228,0,0,1,2.574-1.063,3.991,3.991,0,0,1,1.85.448,3.258,3.258,0,0,1,1.376,1.478,6.159,6.159,0,0,1,.534,2.806v1.362h4.614v1.494h-11.861Zm1.281.133v1.511h4.685v-1.2a4.624,4.624,0,0,0-.546-2.524,2.065,2.065,0,0,0-1.862-.83,2.034,2.034,0,0,0-1.708.731A3.763,3.763,0,0,0,1092.413,255.141Zm6.108-15.417a4.827,4.827,0,0,1,3.428,1.129,3.9,3.9,0,0,1,1.21,3.022,4.161,4.161,0,0,1-.534,2.109,3.854,3.854,0,0,1-1.578,1.445,5.549,5.549,0,0,1-2.526.531,4.833,4.833,0,0,1-3.4-1.113,3.931,3.931,0,0,1-1.186-3.022,4.025,4.025,0,0,1,.546-2.125,3.641,3.641,0,0,1,1.554-1.445A5.312,5.312,0,0,1,1098.521,239.724Zm0,6.725a4.507,4.507,0,0,0,2.514-.614,2.612,2.612,0,0,0,0-3.969,4.409,4.409,0,0,0-2.514-.631,4.219,4.219,0,0,0-2.467.631,2.251,2.251,0,0,0-.9,1.993,2.211,2.211,0,0,0,.9,1.976A4.312,4.312,0,0,0,1098.521,246.449Zm-4.59-14.023c0-.166.012-.343.024-.531a2.924,2.924,0,0,1,.071-.515l1.34.183c-.024.145-.059.3-.083.482s-.024.327-.024.482a2.277,2.277,0,0,0,.38,1.279,2.643,2.643,0,0,0,1.044.963,3.3,3.3,0,0,0,1.565.349h4.745v1.461h-8.9v-1.2l1.625-.166v-.066a4.522,4.522,0,0,1-1.269-1.113A2.592,2.592,0,0,1,1093.931,232.426Zm8.03-6.51a4.466,4.466,0,0,0-.048-.681,5.527,5.527,0,0,0-.13-.565h1.115a2.717,2.717,0,0,1,.178.664,4.094,4.094,0,0,1,.083.83,3.564,3.564,0,0,1-.237,1.3,2.006,2.006,0,0,1-.842.946,3.239,3.239,0,0,1-1.672.365h-5.183v1.262h-.7l-.581-1.279-1.9-.581v-.863h2.052v-2.574h1.127v2.574h5.148a1.674,1.674,0,0,0,1.21-.382A1.428,1.428,0,0,0,1101.961,225.915Zm-6.737-7.96V220.2h7.769v1.461h-7.769v1.561h-.688l-.5-1.561h-.51a3.371,3.371,0,0,1-2.479-.764,2.866,2.866,0,0,1-.759-2.125,4.765,4.765,0,0,1,.095-.963,6.136,6.136,0,0,1,.2-.764l1.151.382a5.222,5.222,0,0,0-.166.614,2.863,2.863,0,0,0-.083.714,1.27,1.27,0,0,0,.5,1.1,2.639,2.639,0,0,0,1.53.349h.581v-2.242Zm3.3-10.174a4.827,4.827,0,0,1,3.428,1.129,3.9,3.9,0,0,1,1.21,3.022,4.158,4.158,0,0,1-.534,2.109,3.853,3.853,0,0,1-1.578,1.445,5.534,5.534,0,0,1-2.526.531,4.833,4.833,0,0,1-3.4-1.113,3.929,3.929,0,0,1-1.186-3.022,4.028,4.028,0,0,1,.546-2.125,3.641,3.641,0,0,1,1.554-1.445A5.313,5.313,0,0,1,1098.521,207.781Zm0,6.725a4.507,4.507,0,0,0,2.514-.614,2.612,2.612,0,0,0,0-3.969,4.408,4.408,0,0,0-2.514-.631,4.219,4.219,0,0,0-2.467.631,2.254,2.254,0,0,0-.9,1.993,2.21,2.21,0,0,0,.9,1.976A4.312,4.312,0,0,0,1098.521,214.507Zm4.472-11.333v1.461h-12.62v-1.461Zm-12.24-4.4a.831.831,0,0,1,.237-.581,1.039,1.039,0,0,1,1.388,0,.833.833,0,0,1,.237.581.875.875,0,0,1-.237.614,1.091,1.091,0,0,1-1.388,0A.873.873,0,0,1,1090.753,198.777Zm3.345-.714h8.9v1.461h-8.9Zm4.424-11.388a4.827,4.827,0,0,1,3.428,1.129,3.9,3.9,0,0,1,1.21,3.022,4.161,4.161,0,0,1-.534,2.109,3.853,3.853,0,0,1-1.578,1.445,5.549,5.549,0,0,1-2.526.531,4.833,4.833,0,0,1-3.4-1.113,3.931,3.931,0,0,1-1.186-3.022,4.025,4.025,0,0,1,.546-2.125,3.641,3.641,0,0,1,1.554-1.445A5.312,5.312,0,0,1,1098.521,186.675Zm0,6.725a4.507,4.507,0,0,0,2.514-.614,2.612,2.612,0,0,0,0-3.969,4.408,4.408,0,0,0-2.514-.631,4.219,4.219,0,0,0-2.467.631,2.251,2.251,0,0,0-.9,1.993,2.211,2.211,0,0,0,.9,1.976A4.312,4.312,0,0,0,1098.521,193.4Z" transform="translate(-1090.29 -186.675)"/>
</svg>
